<?xml version="1.0" standalone="no"?>
<!DOCTYPE svg PUBLIC "-//W3C//DTD SVG 20010904//EN"
 "http://www.w3.org/TR/2001/REC-SVG-20010904/DTD/svg10.dtd">
<svg version="1.0" xmlns="http://www.w3.org/2000/svg"
 width="1024.000000pt" height="765.000000pt" viewBox="0 0 1024.000000 765.000000"
 preserveAspectRatio="xMidYMid meet">
<g transform="translate(0.000000,765.000000) scale(0.100000,-0.100000)"
fill="#000000" stroke="none">
<path d="M5158 5796 c-108 -31 -188 -102 -260 -231 -24 -44 -125 -219 -223
-390 -259 -452 -393 -684 -525 -915 -64 -113 -169 -295 -232 -405 -63 -110
-185 -321 -270 -470 -85 -148 -217 -378 -293 -510 -76 -132 -164 -285 -195
-340 -31 -55 -129 -227 -218 -381 -89 -155 -164 -289 -168 -298 -6 -15 24 -16
345 -16 l350 0 25 43 c13 23 108 191 211 372 103 182 207 365 232 408 l45 77
339 0 c186 0 339 -2 339 -5 0 -3 -40 -74 -88 -158 -49 -84 -135 -233 -192
-332 -57 -99 -124 -216 -150 -260 -26 -44 -55 -95 -64 -112 l-17 -33 1490 0
c1044 0 1506 3 1543 11 220 46 351 289 273 509 -8 23 -47 96 -86 163 -100 171
-132 226 -259 447 -203 354 -184 326 -243 354 l-53 26 -388 -2 -389 -3 -75
-130 c-41 -71 -119 -206 -172 -300 l-98 -170 424 -5 423 -5 31 -48 c81 -128
97 -188 59 -223 -20 -18 -49 -19 -720 -22 -479 -2 -699 1 -699 8 0 12 95 180
368 650 89 154 161 278 222 385 31 55 110 192 175 305 323 561 314 542 302
617 -4 20 -44 102 -90 182 -587 1023 -602 1049 -655 1104 -69 71 -151 108
-248 113 -49 2 -97 -2 -126 -10z m147 -916 c10 -11 39 -57 65 -102 26 -46 63
-110 82 -143 123 -210 148 -256 148 -264 0 -7 -50 -98 -145 -261 -17 -30 -122
-212 -233 -405 l-200 -350 -341 -3 c-188 -1 -341 0 -341 2 0 5 61 112 508 891
107 187 215 376 240 420 61 110 113 197 131 218 19 23 64 22 86 -3z"/>
</g>
</svg>
